#!OML:ASF H:\Terrain\Patient Classification 1\Animal2\Wednesday\Animal2.ASF
:FULLY-SPECIFIED
:DEGREES
513
root 14.1056 18.0221 -4.84915 24.4943 16.5062 0.307927
lowerback 16.0682 -0.789747 3.82804
upperback -11.9012 -0.24711 -1.137
thorax -23.1751 -0.858278 -3.45665
lowerneck 3.47695 5.9885 14.8963
upperneck -35.4592 5.255 -20.4135
head -10.597 3.02269 -11.1078
rclavicle 1.27595e-014 -2.26615e-014
rhumerus 78.8508 -14.0099 -60.6078
rradius 22.6367
rwrist -1.62415
rhand -35.2119 7.96373
rfingers 7.12502
rthumb -8.34923 -21.8513
lclavicle 1.27595e-014 -2.26615e-014
lhumerus 30.1136 24.8264 -10.1095
lradius 64.051
lwrist 57.3277
lhand -4.00471 12.365
lfingers 7.12502
lthumb 21.7494 41.163
rfemur -50.462 -1.85492 8.99522
rtibia 39.127
rfoot -12.6259 -1.89106
rtoes 17.3237
lfemur -33.7988 -4.13968 -12.8676
ltibia 34.8879
lfoot -14.65 -3.66254
ltoes -35.4784
514
root 14.0943 18.0842 -4.7414 24.5618 16.5037 0.480597
lowerback 15.9699 -0.685166 3.81384
upperback -11.9736 -0.120358 -1.21593
thorax -23.1967 -0.81417 -3.58829
lowerneck 3.07302 6.02763 14.9934
upperneck -35.3851 5.25028 -20.5346
head -10.4737 3.01458 -11.1363
rclavicle -1.39149e-015 -1.61016e-014
rhumerus 79.844 -13.3114 -63.1813
rradius 22.261
rwrist -3.95001
rhand -38.8034 7.09183
rfingers 7.12502
rthumb -11.8141 -22.5549
lclavicle -1.39149e-015 -1.61016e-014
lhumerus 31.4768 24.8451 -9.66463
lradius 61.1491
lwrist 56.4364
lhand -7.29609 13.2657
lfingers 7.12502
lthumb 18.586 42.3978
rfemur -50.1193 -2.0432 9.33446
rtibia 37.4529
rfoot -11.7149 -1.24561
rtoes 18.0954
lfemur -33.6959 -4.0114 -12.8782
ltibia 35.1911
lfoot -13.2967 -4.28284
ltoes -34.961
515
root 14.0791 18.0933 -4.63566 24.5635 16.7402 0.467912
lowerback 15.8766 -0.487033 3.90638
upperback -11.907 0.179924 -1.22513
thorax -23.0072 -0.696693 -3.75644
lowerneck 1.90428 6.04861 15.204
upperneck -35.0555 5.10978 -20.817
head -10.1129 2.9326 -11.1655
rclavicle -1.43746e-014 3.1408e-014
rhumerus 80.343 -13.071 -63.7808
rradius 22.688
rwrist -7.98024
rhand -41.767 5.5686
rfingers 7.12502
rthumb -14.6707 -23.8924
lclavicle -1.43746e-014 3.1408e-014
lhumerus 33.341 25.3684 -8.52633
lradius 58.1828
lwrist 55.1297
lhand -10.2635 14.295
lfingers 7.12502
lthumb 15.7299 43.6757
rfemur -49.959 -2.26116 9.87388
rtibia 36.144
rfoot -10.7716 -0.875255
rtoes 17.7426
lfemur -33.9225 -3.87371 -12.6022
ltibia 35.9102
lfoot -11.8135 -5.40386
ltoes -32.0864
516
root 14.0638 18.1346 -4.52701 24.6574 16.8774 0.497008
lowerback 15.642 -0.490123 3.97114
upperback -11.9764 0.21179 -1.0989
thorax -22.9387 -0.676534 -3.65571
lowerneck 1.5598 6.14711 15.0226
upperneck -34.8832 5.16933 -20.9112
head -9.96332 2.98682 -11.1209
rclavicle -1.20078e-014 3.17062e-014
rhumerus 80.6165 -12.0702 -63.9722
rradius 23.5378
rwrist -12.4445
rhand -44.186 3.28771
rfingers 7.12502
rthumb -17.0002 -25.9884
lclavicle -1.20078e-014 3.17062e-014
lhumerus 34.0537 25.56 -8.14862
lradius 55.6295
lwrist 53.7502
lhand -13.1211 15.2135
lfingers 7.12502
lthumb 12.9765 44.79
rfemur -49.7913 -2.44589 10.3998
rtibia 34.9958
rfoot -10.0473 -0.539362
rtoes 16.6489
lfemur -34.3102 -3.66059 -12.4264
ltibia 36.7763
lfoot -10.3234 -6.3396
ltoes -30.7707
517
root 14.0488 18.1671 -4.41394 24.7446 17.0176 0.621434
lowerback 15.3739 -0.46474 3.9898
upperback -12.0589 0.244883 -1.09821
thorax -22.8661 -0.6639 -3.67637
lowerneck 1.38233 6.18398 15.0135
upperneck -34.6933 5.20478 -20.9434
head -9.84498 3.00667 -11.0938
rclavicle -4.57018e-014 -9.64106e-015
rhumerus 80.427 -11.2849 -63.5889
rradius 24.641
rwrist -16.7011
rhand -46.365 1.07088
rfingers 7.12502
rthumb -19.0967 -28.0116
lclavicle -4.57018e-014 -9.64106e-015
lhumerus 34.8505 25.6589 -7.84583
lradius 53.3232
lwrist 52.7655
lhand -16.0715 16.3666
lfingers 7.12502
lthumb 10.1312 46.1026
rfemur -49.5532 -2.8283 10.973
rtibia 34.1776
rfoot -9.51242 -0.173711
rtoes 15.3823
lfemur -34.7739 -3.41593 -12.3671
ltibia 37.8835
lfoot -8.87338 -7.27715
ltoes -30.9094
518
root 14.0322 18.1972 -4.30069 24.8069 17.2733 0.779752
lowerback 15.1477 -0.436811 3.95908
upperback -12.1472 0.284226 -1.03163
thorax -22.8286 -0.633268 -3.59399
lowerneck 1.36923 6.13854 14.7908
upperneck -34.6224 5.13729 -20.8677
head -9.84511 2.99455 -11.0118
rclavicle 4.29189e-014 3.88997e-014
rhumerus 79.7871 -10.6271 -62.1935
rradius 26.332
rwrist -20.9085
rhand -48.1241 -0.80561
rfingers 7.12502
rthumb -20.7876 -29.7121
lclavicle 4.29189e-014 3.88997e-014
lhumerus 35.665 25.7419 -7.37333
lradius 51.1282
lwrist 51.7767
lhand -18.7944 18.056
lfingers 7.12502
lthumb 7.50365 47.9029
rfemur -49.2282 -3.35692 11.6328
rtibia 33.4974
rfoot -8.84315 -0.338413
rtoes 14.6484
lfemur -35.2904 -3.2685 -12.2727
ltibia 39.0285
lfoot -7.41788 -8.2671
ltoes -30.7649
519
root 14.0117 18.217 -4.18928 24.9421 17.527 1.14047
lowerback 14.9018 -0.418657 3.63254
upperback -12.1216 0.235352 -0.925959
thorax -22.6263 -0.580429 -3.26133
lowerneck 0.989183 6.18558 14.4986
upperneck -34.5241 5.12484 -20.8977
head -9.74455 3.0188 -10.9303
rclavicle 1.06785e-014 -2.38542e-015
rhumerus 79.2646 -10.0717 -60.2883
rradius 28.3557
rwrist -24.6197
rhand -48.8287 -3.09276
rfingers 7.12502
rthumb -21.4645 -31.9236
lclavicle 1.06785e-014 -2.38542e-015
lhumerus 36.2315 26.1455 -6.92367
lradius 49.0496
lwrist 50.6825
lhand -20.9755 19.4472
lfingers 7.12502
lthumb 5.39804 49.3584
rfemur -48.9632 -3.94984 12.0885
rtibia 33.1308
rfoot -7.93615 -0.308575
rtoes 21.0257
lfemur -36.0141 -3.24146 -12.3359
ltibia 40.399
lfoot -5.90907 -9.00279
ltoes -30.2886
